# xmcd
#
# Track frame offsets:
#	180
#	14046
#	29997
#	45571
#	62089
#	77793
#	88432
#	101259
#
# Disc length: 1620 seconds
#
# Revision: 0
# Processed by: cddbd v1.4PL0 Copyright (c) Steve Scherf et al.
# Submitted via: dBpowerAMP V4.0
#
DISCID=6b065208
DTITLE=The Envoys - Keep believing
DYEAR=1900
DGENRE=Country
TTITLE0=There is a Mountain
TTITLE1=This is the Life
TTITLE2=Stand Tall
TTITLE3=Keep Believing
TTITLE4=This is America
TTITLE5=last Mile Running
TTITLE6=You'll never walk alone
TTITLE7=I am the Nation (USA)
EXTD=
EXTT0=
EXTT1=
EXTT2=
EXTT3=
EXTT4=
EXTT5=
EXTT6=
EXTT7=
PLAYORDER=
